<?xml version="1.0" encoding="UTF-8" standalone="no"?>
<!DOCTYPE svg PUBLIC "-//W3C//DTD SVG 20010904//EN" "http://www.w3.org/TR/2001/REC-SVG-20010904/DTD/svg10.dtd">
<svg version="1.0" xmlns="http://www.w3.org/2000/svg" width="40.000000pt" height="40.000000pt" viewBox="0 0 600.000000 600.000000" preserveAspectRatio="xMidYMid meet">
<metadata>
Created by potrace 1.10, written by Peter Selinger 2001-2011
</metadata>
<g transform="translate(0.000000,600.000000) scale(0.100000,-0.100000)" fill="#404148" stroke="none">
<path d="M1150 4731 c0 -837 3 -1278 10 -1293 6 -13 18 -35 28 -50 9 -14 39 -64 67 -110 27 -45 55 -92 62 -103 7 -11 17 -29 23 -40 14 -25 28 -48 63 -102 15 -24 27 -45 27 -48 0 -4 13 -26 30 -50 16 -24 30 -48 30 -53 0 -5 14 -28 30 -50 17 -23 30 -44 30 -47 0 -3 23 -43 50 -88 28 -45 56 -91 63 -102 7 -11 24 -39 40 -63 15 -24 27 -45 27 -48 0 -14 96 -164 105 -164 5 0 102 154 215 342 187 311 217 361 250 423 5 11 18 32 28 47 30 47 118 193 125 208 4 8 16 29 27 45 47 71 45 40 50 880 l5 800 1305 0 c1273 0 1306 0 1335 -19 53 -35 86 -70 106 -115 18 -42 19 -79 19 -1336 0 -1170 -2 -1293 -16 -1299 -9 -3 -783 -6 -1720 -6 -1369 0 -1704 -2 -1704 -13 0 -7 11 -29 25 -49 14 -20 25 -39 25 -42 0 -3 14 -25 30 -49 17 -25 30 -48 30 -52 0 -3 12 -25 28 -48 41 -63 51 -80 62 -102 6 -11 18 -32 28 -47 14 -22 55 -89 129 -213 7 -11 15 -27 19 -35 4 -8 16 -26 26 -39 36 -47 26 -63 -99 -167 -65 -54 -127 -106 -138 -116 -11 -9 -93 -77 -181 -151 -89 -73 -174 -145 -190 -160 -51 -48 -53 -36 -56 292 l-3 296 -375 5 c-331 4 -379 7 -407 22 -48 27 -88 68 -112 115 l-21 42 0 1554 c0 1516 0 1556 19 1598 29 65 94 119 159 134 18 3 37 15 42 25 6 11 10 104 10 213 0 159 -3 197 -15 207 -11 9 -33 10 -94 1 -44 -6 -88 -15 -98 -20 -10 -5 -43 -19 -73 -31 -73 -30 -132 -72 -208 -149 -79 -80 -125 -159 -163 -275 l-29 -90 0 -1606 c0 -1571 0 -1607 20 -1675 69 -244 239 -417 480 -490 37 -11 111 -18 225 -22 94 -3 176 -10 183 -16 9 -7 12 -131 12 -558 0 -358 3 -550 10 -554 6 -3 23 4 39 17 24 19 206 171 301 252 14 11 93 77 175 145 83 69 175 146 205 171 74 62 303 253 365 304 27 23 92 77 145 121 52 44 104 87 114 95 17 13 192 16 1360 20 l1341 5 63 22 c229 81 378 230 451 451 l31 92 0 1613 0 1613 -29 90 c-38 116 -84 195 -163 275 -76 77 -134 119 -208 149 -30 12 -71 30 -90 39 -32 14 -161 16 -1369 19 -946 2 -1339 6 -1348 14 -10 8 -13 62 -13 239 l0 229 -690 0 -690 0 0 -1269z m905 -1116 c217 -73 245 -84 245 -98 0 -8 -30 -59 -160 -277 -5 -8 -45 -74 -90 -147 -44 -72 -80 -135 -80 -141 0 -26 -51 -42 -138 -42 -79 0 -91 2 -109 23 -23 26 -353 573 -353 586 0 12 34 25 245 97 99 34 194 62 212 63 18 0 120 -28 228 -64z"/>
</g>
</svg>